HIERARCHY
ROOT Hips
{
	OFFSET 0.00000 0.00000 0.00000
	CHANNELS 6 Xposition Yposition Zposition Zrotation Yrotation Xrotation 
	JOINT LHipJoint
	{
		OFFSET 0 0 0
		CHANNELS 3 Zrotation Yrotation Xrotation
		JOINT LeftHip
		{
			OFFSET 1.81638 -1.86202 0.89635
			CHANNELS 3 Zrotation Yrotation Xrotation
			JOINT LeftKnee
			{
				OFFSET 2.63464 -7.23861 0.00000
				CHANNELS 3 Zrotation Yrotation Xrotation
				JOINT LeftAnkle
				{
					OFFSET 2.45871 -6.75336 0.00000
					CHANNELS 3 Zrotation Yrotation Xrotation
					JOINT LeftToe
					{
						OFFSET 0.34235 -0.94059 2.20020
						CHANNELS 3 Zrotation Yrotation Xrotation
						End Site
						{
							OFFSET 0.00000 -0.00000 1.18611
						}
					}
				}
			}
		}
	}
	JOINT RHipJoint
	{
		OFFSET 0 0 0
		CHANNELS 3 Zrotation Yrotation Xrotation
		JOINT RightHip
		{
			OFFSET -1.84405 -1.86203 0.89635
			CHANNELS 3 Zrotation Yrotation Xrotation
			JOINT RightKnee
			{
				OFFSET -2.71067 -7.44751 0.00000
				CHANNELS 3 Zrotation Yrotation Xrotation
				JOINT RightAnkle
				{
					OFFSET -2.47159 -6.79060 0.00000
					CHANNELS 3 Zrotation Yrotation Xrotation
					JOINT RightToe
					{
						OFFSET -0.26223 -0.72048 2.36007
						CHANNELS 3 Zrotation Yrotation Xrotation
						End Site
						{
							OFFSET -0.00000 -0.00000 1.23343
						}
					}
				}
			}
		}
	}
	JOINT lowerback
	{
		OFFSET 0 0 0
		CHANNELS 3 Zrotation Yrotation Xrotation
		JOINT Chest
		{
			OFFSET 0.02089 1.99248 -0.22512
			CHANNELS 3 Zrotation Yrotation Xrotation
			JOINT Chest2
			{
				OFFSET 0.01476 2.01356 -0.03079
				CHANNELS 3 Zrotation Yrotation Xrotation
				JOINT lowerneck
				{
					OFFSET 0 0 0
					CHANNELS 3 Zrotation Yrotation Xrotation
					JOINT Neck
					{
						OFFSET 0.04846 1.65098 0.06663
						CHANNELS 3 Zrotation Yrotation Xrotation
						JOINT Head
						{
							OFFSET -0.06061 1.60634 -0.07565
							CHANNELS 3 Zrotation Yrotation Xrotation
							End Site
							{
								OFFSET -0.02954 1.73562 -0.03642
							}
						}
					}
				}
				JOINT LeftCollar
				{
					OFFSET 0 0 0
					CHANNELS 3 Zrotation Yrotation Xrotation
					JOINT LeftShoulder
					{
						OFFSET 3.45234 1.47051 -0.06993
CHANNELS 3 Zrotation Xrotation Yrotation
						JOINT LeftElbow
						{
OFFSET 0 -5.493130 0.000000
CHANNELS 3 Zrotation Xrotation Yrotation
							JOINT LeftWrist
							{
OFFSET 0 -3.290370 0.000000
CHANNELS 3 Zrotation Xrotation Yrotation
								JOINT lhand
								{
									OFFSET 0 0 0
CHANNELS 3 Zrotation Xrotation Yrotation
									JOINT LFingers
									{
OFFSET 0 -0.729660 0.000000
CHANNELS 3 Zrotation Xrotation Yrotation
										End Site
										{
OFFSET 0 -0.588270 0.000000
										}
									}
								}
								JOINT LThumb
								{
OFFSET 0 0.000000 0.000000
CHANNELS 3 Zrotation Xrotation Yrotation
									End Site
									{
OFFSET 0 -0.597250 0.597250
									}
								}
							}
						}
					}
				}
				JOINT RightCollar
				{
					OFFSET 0 0 0
					CHANNELS 3 Zrotation Yrotation Xrotation
					JOINT RightShoulder
					{
						OFFSET -3.41935 1.44327 0.20453
CHANNELS 3 Zrotation Xrotation Yrotation
						JOINT RightElbow
						{
OFFSET 0 -5.236840 0.000000
CHANNELS 3 Zrotation Xrotation Yrotation
							JOINT RightWrist
							{
OFFSET 0 -3.382510 0.000000
CHANNELS 3 Zrotation Xrotation Yrotation
								JOINT rhand
								{
									OFFSET 0 0 0
CHANNELS 3 Zrotation Xrotation Yrotation
									JOINT RFingers
									{
OFFSET 0 -0.691450 0.000000
CHANNELS 3 Zrotation Xrotation Yrotation
										End Site
										{
OFFSET 0 -0.557470 0.000000
										}
									}
								}
								JOINT RThumb
								{
OFFSET 0 0.000000 0.000000
CHANNELS 3 Zrotation Xrotation Yrotation
									End Site
									{
OFFSET 0 -0.565980 0.565980
									}
								}
							}
						}
					}
				}
			}
		}
	}
}
MOTION
Frames: 14
Frame Time: .0083333
10.3481 17.5459 -0.6260 277.6090 85.3555 274.8260 0.0000 0.0000 0.0000 -10.4873 -5.8108 -2.6039 2.7253 10.2365 29.7459 1.6135 -16.5825 -23.9651 0.0136 -0.7534 -2.0706 0.0000 0.0000 0.0000 22.3387 12.9228 -2.3570 -1.9939 -8.8534 25.3377 -0.4781 11.1820 -13.6328 -0.0001 -0.0716 0.1968 -2.2069 2.5167 15.5804 -1.4330 3.3806 7.0916 -0.8093 1.8381 -1.2334 5.4295 -3.0975 4.5337 2.6110 -3.4230 -8.2541 0.0621 -1.9406 -3.5300 -0.0000 -0.0000 0.0000 13.1648 33.6767 -44.6219 26.9441 -38.1259 9.4646 -9.6239 -4.0904 -7.0702 0.0 0.0 0.0 -7.1250 0.0 0.0 -29.6322 35.4977 -7.8086 -0.0000 -0.0000 0.0000 -12.198 20.9173 44.0919 -24.3171 -35.4978 -7.8899 -9.247 5.9823 15.9305 0.0 0.0 0.0 7.1250 0.0 -0.0 17.1721 45.3832 -0.1674
10.3650 17.5416 -0.6210 277.6750 85.2875 274.7900 0.0000 0.0000 0.0000 -10.4334 -5.8196 -2.4231 2.7335 10.2507 29.7924 1.6367 -16.4966 -24.0857 0.0151 -0.7924 -2.1779 0.0000 0.0000 0.0000 22.4828 12.9246 -2.1638 -1.9947 -8.8550 25.3429 -0.4856 11.1612 -13.7012 -0.0001 -0.0778 0.2136 -2.2571 2.5198 15.5884 -1.4697 3.3774 7.0902 -0.8195 1.8365 -1.2393 5.4153 -3.1005 4.5026 2.6811 -3.4306 -8.1049 0.0854 -1.9430 -3.4700 -0.0000 0.0000 0.0000 13.0689 33.8008 -44.5525 26.9025 -38.0861 9.4389 -9.7884 -4.145 -7.2214 0.0 0.0 0.0 -7.1250 0.0 0.0 -29.8061 35.618 -7.7657 -0.0000 0.0000 0.0000 -12.0505 21.1413 43.6582 -23.9941 -35.158 -7.7031 -8.7456 6.3686 16.0022 0.0 0.0 0.0 7.1250 0.0 -0.0 17.6448 45.3919 -0.1762
10.3822 17.5371 -0.6164 277.8760 85.2207 274.8840 0.0000 0.0000 0.0000 -10.3851 -5.8344 -2.2313 2.7420 10.2653 29.8401 1.6594 -16.4080 -24.2031 0.0163 -0.8236 -2.2637 0.0000 0.0000 0.0000 22.6243 12.9288 -1.9629 -1.9951 -8.8559 25.3455 -0.4927 11.1472 -13.7688 -0.0002 -0.0834 0.2293 -2.3218 2.5291 15.5912 -1.5063 3.3796 7.0818 -0.8223 1.8370 -1.2506 5.3988 -3.0941 4.4654 2.7323 -3.4285 -7.9468 0.1021 -1.9396 -3.4060 0.0000 0.0000 0.0000 12.9859 33.8956 -44.4566 26.8658 -38.0509 9.4163 -9.879 -4.1694 -7.374 0.0 0.0 0.0 -7.1250 0.0 0.0 -29.9262 35.7453 -7.6981 0.0000 0.0000 0.0000 -11.9106 21.3773 43.2303 -23.7107 -34.8568 -7.5405 -8.2757 6.724 16.0774 0.0 0.0 0.0 7.1250 0.0 -0.0 18.0906 45.4077 -0.1883
10.3994 17.5323 -0.6122 278.2190 85.1478 275.1170 0.0000 0.0000 0.0000 -10.3330 -5.8522 -2.0339 2.7508 10.2803 29.8892 1.6813 -16.3227 -24.3164 0.0171 -0.8440 -2.3197 0.0000 0.0000 0.0000 22.7692 12.9326 -1.7598 -1.9950 -8.8556 25.3446 -0.4990 11.1440 -13.8317 -0.0002 -0.0891 0.2448 -2.3926 2.5436 15.5891 -1.5429 3.3871 7.0650 -0.8226 1.8398 -1.2686 5.3927 -3.0833 4.4000 2.7528 -3.4256 -7.7655 0.1062 -1.9341 -3.3296 0.0000 -0.0000 0.0000 12.9238 33.9695 -44.3444 26.8438 -38.0299 9.4028 -9.8982 -4.1781 -7.5234 0.0 0.0 0.0 -7.1250 0.0 0.0 -29.9925 35.8754 -7.6095 0.0000 -0.0000 0.0000 -11.7747 21.6273 42.815 -23.4668 -34.5953 -7.4016 -7.8581 7.0356 16.1523 0.0 0.0 0.0 7.1250 0.0 -0.0 18.4894 45.429 -0.2028
10.4165 17.5275 -0.6082 278.6660 85.0680 275.4550 0.0000 0.0000 0.0000 -10.2743 -5.8719 -1.8354 2.7596 10.2953 29.9383 1.7023 -16.2424 -24.4250 0.0175 -0.8548 -2.3495 0.0000 0.0000 0.0000 22.9177 12.9350 -1.5585 -1.9939 -8.8534 25.3379 -0.5044 11.1503 -13.8875 -0.0002 -0.0942 0.2589 -2.4692 2.5630 15.5792 -1.5790 3.3996 7.0403 -0.8199 1.8448 -1.2910 5.3892 -3.0673 4.3359 2.7560 -3.4164 -7.5945 0.1040 -1.9253 -3.2576 0.0000 0.0000 0.0000 12.8811 34.0161 -44.2121 26.8295 -38.0161 9.3939 -9.8579 -4.1652 -7.6662 0.0 0.0 0.0 -7.1250 0.0 0.0 -30.0127 36.0045 -7.5066 0.0000 0.0000 0.0000 -11.6433 21.889 42.421 -23.2611 -34.3731 -7.2852 -7.4857 7.2881 16.2259 0.0 0.0 0.0 7.1250 0.0 -0.0 18.8476 45.4544 -0.2192
10.4335 17.5226 -0.6044 279.1760 84.9810 275.8600 0.0000 0.0000 0.0000 -10.2078 -5.8921 -1.6397 2.7684 10.3103 29.9876 1.7226 -16.1692 -24.5316 0.0178 -0.8606 -2.3653 0.0000 0.0000 0.0000 23.0697 12.9327 -1.3599 -1.9914 -8.8482 25.3217 -0.5086 11.1655 -13.9352 -0.0002 -0.1010 0.2775 -2.5513 2.5851 15.5597 -1.6153 3.4144 7.0090 -0.8143 1.8506 -1.3158 5.3872 -3.0433 4.2831 2.7438 -3.3961 -7.4446 0.0967 -1.9109 -3.1955 -0.0000 0.0000 0.0000 12.8574 34.0422 -44.0515 26.8308 -38.0173 9.3947 -9.7677 -4.1323 -7.7943 0.0 0.0 0.0 -7.1250 0.0 0.0 -29.9906 36.1247 -7.3978 -0.0000 0.0000 0.0000 -11.5131 22.1625 42.0406 -23.0961 -34.1937 -7.1922 -7.1483 7.4805 16.2943 0.0 0.0 0.0 7.1250 0.0 -0.0 19.1727 45.4786 -0.2352
10.4503 17.5178 -0.6005 279.7320 84.8866 276.3160 0.0000 0.0000 0.0000 -10.1315 -5.9084 -1.4488 2.7769 10.3248 30.0349 1.7419 -16.1058 -24.6343 0.0177 -0.8578 -2.3578 0.0000 0.0000 0.0000 23.2249 12.9240 -1.1650 -1.9870 -8.8390 25.2931 -0.5113 11.1925 -13.9715 -0.0003 -0.1158 0.3181 -2.6384 2.6097 15.5275 -1.6528 3.4317 6.9725 -0.8072 1.8573 -1.3396 5.3796 -3.0136 4.2465 2.7335 -3.3658 -7.3249 0.0912 -1.8923 -3.1467 0.0000 -0.0000 0.0000 12.8569 34.0438 -43.8672 26.8445 -38.0305 9.4031 -9.6361 -4.0871 -7.9029 0.0 0.0 0.0 -7.1250 0.0 0.0 -29.9309 36.2313 -7.289 0.0000 -0.0000 0.0000 -11.3845 22.4425 41.6819 -22.9696 -34.0556 -7.1213 -6.8502 7.601 16.3536 0.0 0.0 0.0 7.1250 0.0 -0.0 19.4596 45.499 -0.2492
10.4667 17.5132 -0.5970 280.3290 84.7790 276.8200 0.0000 0.0000 0.0000 -10.0402 -5.9194 -1.2657 2.7849 10.3384 30.0795 1.7608 -16.0480 -24.7359 0.0174 -0.8525 -2.3431 0.0000 0.0000 0.0000 23.3873 12.9071 -0.9773 -1.9803 -8.8249 25.2492 -0.5119 11.2335 -13.9920 -0.0004 -0.1307 0.3590 -2.7228 2.6348 15.4824 -1.6916 3.4499 6.9317 -0.8025 1.8644 -1.3609 5.3669 -2.9794 4.2302 2.7273 -3.3262 -7.2437 0.0883 -1.8701 -3.1149 0.0000 -0.0000 0.0000 12.8791 34.0252 -43.6553 26.8777 -38.0623 9.4236 -9.4792 -4.0389 -7.9923 0.0 0.0 0.0 -7.1250 0.0 0.0 -29.8452 36.323 -7.1854 0.0000 -0.0000 0.0000 -11.2561 22.723 41.3454 -22.8799 -33.9572 -7.0711 -6.5905 7.6486 16.4084 0.0 0.0 0.0 7.1250 0.0 -0.0 19.7106 45.5194 -0.263
10.4829 17.5088 -0.5933 280.9060 84.6645 277.3140 0.0000 0.0000 0.0000 -9.9390 -5.9278 -1.0915 2.7921 10.3507 30.1201 1.7795 -15.9962 -24.8377 0.0172 -0.8470 -2.3279 0.0000 0.0000 0.0000 23.5524 12.8859 -0.7942 -1.9710 -8.8055 25.1888 -0.5112 11.2798 -14.0007 -0.0005 -0.1513 0.4158 -2.8141 2.6590 15.4229 -1.7324 3.4663 6.8883 -0.7950 1.8704 -1.3777 5.3584 -2.9437 4.2167 2.7192 -3.2830 -7.1878 0.0844 -1.8467 -3.0924 0.0000 0.0000 0.0000 12.9229 33.9849 -43.4157 26.9306 -38.1129 9.4562 -9.2921 -3.9959 -8.0618 0.0 0.0 0.0 -7.1250 0.0 0.0 -29.7294 36.3998 -7.086 0.0000 0.0000 0.0000 -11.1298 23.0008 41.0331 -22.8286 -33.9008 -7.0424 -6.3639 7.6272 16.453 0.0 0.0 0.0 7.1250 0.0 -0.0 19.9284 45.534 -0.2736
10.4987 17.5049 -0.5898 281.4900 84.5417 277.8200 0.0000 0.0000 0.0000 -9.8292 -5.9333 -0.9218 2.7987 10.3619 30.1567 1.7985 -15.9440 -24.9412 0.0170 -0.8426 -2.3158 0.0000 0.0000 0.0000 23.7208 12.8566 -0.6149 -1.9592 -8.7805 25.1111 -0.5085 11.3366 -13.9931 -0.0007 -0.1715 0.4712 -2.9066 2.6833 15.3561 -1.7773 3.4826 6.8428 -0.7909 1.8763 -1.3926 5.3425 -2.9055 4.2196 2.7317 -3.2326 -7.1665 0.0888 -1.8210 -3.0842 0.0000 -0.0000 0.0000 12.9942 33.9256 -43.1527 27.0071 -38.186 9.5035 -9.0929 -3.9657 -8.1269 0.0 0.0 0.0 -7.1250 0.0 0.0 -29.6028 36.4736 -6.9865 0.0000 -0.0000 0.0000 -11.004 23.2673 40.7475 -22.8079 -33.8781 -7.0309 -6.1895 7.5393 16.4861 0.0 0.0 0.0 7.1250 0.0 -0.0 20.0956 45.5442 -0.2814
10.5140 17.5012 -0.5865 282.0810 84.4127 278.3400 0.0000 0.0000 0.0000 -9.7140 -5.9370 -0.7588 2.8044 10.3715 30.1885 1.8182 -15.8862 -25.0480 0.0171 -0.8435 -2.3184 0.0000 0.0000 0.0000 23.8894 12.8216 -0.4417 -1.9449 -8.7503 25.0174 -0.5039 11.4013 -13.9700 -0.0009 -0.1955 0.5371 -3.0051 2.7061 15.2796 -1.8264 3.4965 6.7961 -0.7869 1.8810 -1.4036 5.3255 -2.8654 4.2313 2.7567 -3.1765 -7.1712 0.0977 -1.7936 -3.0864 -0.0000 0.0000 0.0000 13.0841 33.8493 -42.8554 27.1104 -38.2843 9.5675 -8.8878 -3.9497 -8.1899 0.0 0.0 0.0 -7.1250 0.0 0.0 -29.4707 36.5462 -6.8873 -0.0000 0.0000 0.0000 -10.8821 23.5157 40.4917 -22.8162 -33.8872 -7.0355 -6.0699 7.3932 16.507 0.0 0.0 0.0 7.1250 0.0 -0.0 20.2096 45.5493 -0.2858
10.5289 17.4980 -0.5834 282.6740 84.2774 278.8700 0.0000 0.0000 0.0000 -9.5947 -5.9427 -0.6010 2.8096 10.3803 30.2172 1.8393 -15.8187 -25.1601 0.0173 -0.8483 -2.3315 0.0000 0.0000 0.0000 24.0589 12.7802 -0.2748 -1.9282 -8.7150 24.9078 -0.4976 11.4715 -13.9321 -0.0011 -0.2158 0.5929 -3.1114 2.7274 15.1952 -1.8783 3.5079 6.7491 -0.7806 1.8842 -1.4110 5.3049 -2.8221 4.2444 2.7971 -3.1146 -7.1883 0.1121 -1.7638 -3.0927 -0.0000 -0.0000 0.0000 13.1885 33.7553 -42.5247 27.2408 -38.4078 9.6483 -8.6823 -3.9571 -8.2584 0.0 0.0 0.0 -7.1250 0.0 0.0 -29.3398 36.6236 -6.7852 -0.0000 -0.0000 0.0000 -10.7684 23.739 40.2697 -22.8477 -33.9218 -7.0531 -5.995 7.1922 16.5154 0.0 0.0 0.0 7.1250 0.0 -0.0 20.2792 45.5482 -0.2862
10.5432 17.4952 -0.5805 283.2840 84.1372 279.4230 0.0000 0.0000 0.0000 -9.4738 -5.9494 -0.4491 2.8146 10.3886 30.2446 1.8617 -15.7389 -25.2779 0.0177 -0.8587 -2.3601 0.0000 0.0000 0.0000 24.2268 12.7324 -0.1142 -1.9093 -8.6746 24.7827 -0.4895 11.5478 -13.8788 -0.0014 -0.2398 0.6588 -3.2286 2.7475 15.1041 -1.9327 3.5165 6.7019 -0.7699 1.8860 -1.4153 5.2956 -2.7794 4.2365 2.8380 -3.0543 -7.1931 0.1244 -1.7347 -3.0911 0.0000 -0.0000 0.0000 13.3034 33.6426 -42.16 27.3956 -38.5539 9.7447 -8.4818 -3.984 -8.352 0.0 0.0 0.0 -7.1250 0.0 0.0 -29.2211 36.7228 -6.6698 0.0000 -0.0000 0.0000 -10.6676 23.9335 40.0878 -22.8998 -33.979 -7.0822 -5.9537 6.9416 16.512 0.0 0.0 0.0 7.1250 0.0 -0.0 20.3144 45.54 -0.2825
10.5568 17.4928 -0.5779 283.9300 83.9825 280.0200 0.0000 0.0000 0.0000 -9.3424 -5.9573 -0.3039 2.8197 10.3974 30.2734 1.8857 -15.6447 -25.4021 0.0183 -0.8731 -2.3997 0.0000 0.0000 0.0000 24.4023 12.6777 0.0382 -1.8881 -8.6289 24.6413 -0.4792 11.6326 -13.8068 -0.0016 -0.2610 0.7170 -3.3474 2.7657 15.0096 -1.9878 3.5226 6.6541 -0.7586 1.8864 -1.4185 5.3001 -2.7360 4.2050 2.8774 -2.9944 -7.1784 0.1332 -1.7054 -3.0787 0.0000 -0.0000 0.0000 13.4286 33.5217 -41.7591 27.5952 -38.7409 9.8693 -8.31 -4.0538 -8.4934 0.0 0.0 0.0 -7.1250 0.0 0.0 -29.1406 36.862 -6.5335 0.0000 -0.0000 0.0000 -10.578 24.0939 39.9404 -22.9688 -34.0546 -7.1208 -5.9245 6.6503 16.5003 0.0 0.0 0.0 7.1250 0.0 -0.0 20.3357 45.5255 -0.2753
